<?xml version="1.0" encoding="UTF-8" standalone="no"?>
<!-- Created with Inkscape (http://www.inkscape.org/) -->

<svg
   xmlns:dc="http://purl.org/dc/elements/1.1/"
   xmlns:cc="http://creativecommons.org/ns#"
   xmlns:rdf="http://www.w3.org/1999/02/22-rdf-syntax-ns#"
   xmlns:svg="http://www.w3.org/2000/svg"
   xmlns="http://www.w3.org/2000/svg"
   xmlns:sodipodi="http://sodipodi.sourceforge.net/DTD/sodipodi-0.dtd"
   xmlns:inkscape="http://www.inkscape.org/namespaces/inkscape"
   width="1298.3002"
   height="277.14285"
   id="svg2"
   version="1.1"
   inkscape:version="0.48.5 r10040"
   sodipodi:docname="logo.svg">
  <defs
     id="defs4" />
  <sodipodi:namedview
     id="base"
     pagecolor="#ffffff"
     bordercolor="#666666"
     borderopacity="1.0"
     inkscape:pageopacity="0.0"
     inkscape:pageshadow="2"
     inkscape:zoom="0.35"
     inkscape:cx="42.122523"
     inkscape:cy="18.910729"
     inkscape:document-units="px"
     inkscape:current-layer="flowRoot3873"
     showgrid="false"
     showguides="true"
     inkscape:guide-bbox="true"
     fit-margin-top="10"
     fit-margin-left="10"
     fit-margin-right="10"
     fit-margin-bottom="10"
     inkscape:window-width="1366"
     inkscape:window-height="705"
     inkscape:window-x="-8"
     inkscape:window-y="-8"
     inkscape:window-maximized="1" />
  <metadata
     id="metadata7">
    <rdf:RDF>
      <cc:Work
         rdf:about="">
        <dc:format>image/svg+xml</dc:format>
        <dc:type
           rdf:resource="http://purl.org/dc/dcmitype/StillImage" />
        <dc:title />
      </cc:Work>
    </rdf:RDF>
  </metadata>
  <g
     inkscape:label="Layer 1"
     inkscape:groupmode="layer"
     id="layer1"
     transform="translate(624.89896,-214.66704)">
    <flowRoot
       xml:space="preserve"
       id="flowRoot3773"
       style="font-size:40px;font-style:normal;font-weight:normal;line-height:125%;letter-spacing:0px;word-spacing:0px;fill:#000000;fill-opacity:1;stroke:none;font-family:Sans"
       transform="translate(99.24025,164.48496)"><flowRegion
         id="flowRegion3775"><rect
           id="rect3777"
           width="363.65491"
           height="208.09143"
           x="-402.04071"
           y="92.505608" /></flowRegion><flowPara
         id="flowPara3779" /></flowRoot>    <g
       id="g3785"
       transform="translate(-204.45976,363.23135)"
       inkscape:export-filename="D:\Projects\BFN3\app\img\logo.png"
       inkscape:export-xdpi="15.741844"
       inkscape:export-ydpi="15.741844"
       style="fill:#333333;fill-opacity:1">
      <g
         style="font-size:20.02556801px;font-style:normal;font-weight:normal;text-align:start;text-anchor:start;fill:#333333;fill-opacity:1;font-family:Symbol"
         id="text3787" />
      <g
         style="font-size:20.02556801px;font-style:normal;font-weight:normal;text-align:start;text-anchor:start;fill:#333333;fill-opacity:1;font-family:Calibri Light"
         id="text3793" />
      <g
         style="font-size:20.02556801px;font-style:normal;font-weight:normal;text-align:start;text-anchor:start;fill:#333333;fill-opacity:1;font-family:Calibri Light"
         id="text3795" />
      <g
         style="font-size:40px;font-style:normal;font-weight:normal;line-height:125%;letter-spacing:0px;word-spacing:0px;fill:#333333;fill-opacity:1;stroke:none;font-family:Sans"
         id="flowRoot3820" />
      <g
         transform="translate(255.70001,-207.98266)"
         style="font-size:40px;font-style:normal;font-weight:normal;line-height:125%;letter-spacing:0px;word-spacing:0px;fill:#333333;fill-opacity:1;stroke:none;font-family:Sans"
         id="flowRoot3828" />
      <g
         id="g3840"
         transform="translate(142.61714,24.929704)"
         style="fill:#333333;fill-opacity:1">
        <g
           style="font-size:20.02556801px;font-style:normal;font-weight:normal;text-align:start;text-anchor:start;fill:#333333;fill-opacity:1;font-family:Symbol"
           id="text3842" />
        <g
           style="font-size:20.02556801px;font-style:normal;font-weight:normal;text-align:start;text-anchor:start;fill:#333333;fill-opacity:1;font-family:Arial"
           id="text3844" />
        <g
           style="font-size:20.02556801px;font-style:normal;font-weight:normal;text-align:start;line-height:125%;text-anchor:start;fill:#333333;fill-opacity:1;font-family:Calibri Light"
           id="text3846" />
        <g
           style="font-size:20.02556801px;font-style:normal;font-weight:normal;text-align:start;text-anchor:start;fill:#333333;fill-opacity:1;font-family:Calibri Light"
           id="text3850" />
        <g
           style="font-size:20.02556801px;font-style:normal;font-weight:normal;text-align:start;text-anchor:start;fill:#333333;fill-opacity:1;font-family:Calibri Light"
           id="text3852" />
        <g
           transform="translate(24.511441,-411.19807)"
           style="font-size:40px;font-style:normal;font-weight:normal;text-align:start;line-height:100%;letter-spacing:0px;word-spacing:0px;text-anchor:start;fill:#333333;fill-opacity:1;stroke:none;font-family:Sans"
           id="flowRoot3873">
          <g
             transform="translate(-547.56778,203.70406)"
             style="font-size:120px;line-height:125%;font-family:Sans"
             id="flowRoot3048">
            <path
               d="m 301.14062,143.477 0,-99.531254 29.39454,0 c 10.66401,9.9e-5 18.75319,2.19899 24.26757,6.596679 5.51426,4.397875 8.27141,10.880616 8.27149,19.448243 -8e-5,5.149808 -1.40144,9.627342 -4.2041,13.432617 -2.8028,3.805395 -6.64232,6.528374 -11.51856,8.168945 5.7877,1.276092 10.44752,4.124397 13.97949,8.54492 3.53183,4.42061 5.29778,9.52478 5.29786,15.3125 -8e-5,8.79559 -2.83699,15.6657 -8.51075,20.61035 -5.67389,4.94467 -13.56939,7.417 -23.68652,7.417 z m 8.40821,-47.851567 0,40.742187 25.22461,0 c 7.20046,1e-5 12.90847,-1.8343 17.12402,-5.50293 4.21543,-3.6686 6.32317,-8.76137 6.32324,-15.27832 -7e-5,-6.15231 -2.01667,-11.01721 -6.0498,-14.59473 -4.03326,-3.577424 -9.60455,-5.366159 -16.71387,-5.366207 z m 0,-7.041015 22.96875,0 c 7.01818,-0.136664 12.45274,-1.788681 16.30371,-4.956055 3.85085,-3.167255 5.7763,-7.781508 5.77637,-13.842773 -7e-5,-6.380129 -1.99388,-11.085528 -5.98145,-14.116211 -3.98769,-3.030509 -10.0147,-4.545807 -18.08105,-4.545899 l -20.98633,0 z"
               style="font-size:140px;font-variant:normal;font-weight:300;font-stretch:normal;text-align:start;line-height:114.99999762%;writing-mode:lr-tb;text-anchor:start;font-family:Roboto Light;-inkscape-font-specification:'Roboto Light, Light'"
               id="path3110"
               inkscape:connector-curvature="0" />
            <path
               d="m 394.24609,143.477 -8.20312,0 0,-105.000004 8.20312,0 z"
               style="font-size:140px;font-variant:normal;font-weight:300;font-stretch:normal;text-align:start;line-height:114.99999762%;writing-mode:lr-tb;text-anchor:start;font-family:Roboto Light;-inkscape-font-specification:'Roboto Light, Light'"
               id="path3112"
               inkscape:connector-curvature="0" />
            <path
               d="m 463.2207,143.477 c -0.82037,-2.32422 -1.34445,-5.76497 -1.57226,-10.32227 -2.87115,3.73699 -6.52837,6.61947 -10.97168,8.64746 -4.4434,2.028 -9.1488,3.04199 -14.11621,3.04199 -7.1094,0 -12.86298,-1.98242 -17.26075,-5.94726 -4.39779,-3.96484 -6.59668,-8.97785 -6.59668,-15.03906 0,-7.2005 2.99641,-12.89711 8.98926,-17.08985 5.99282,-4.19267 14.34405,-6.28902 25.05371,-6.28906 l 14.83399,0 0,-8.408204 c -6e-5,-5.286402 -1.62929,-9.444926 -4.8877,-12.475586 -3.25851,-3.030532 -8.00948,-4.54583 -14.25293,-4.545899 -5.69664,6.9e-5 -10.41343,1.458401 -14.15039,4.375 -3.737,2.916728 -5.60548,6.425839 -5.60547,10.527344 l -8.20312,-0.06836 c -1e-5,-5.878847 2.73436,-10.971615 8.20312,-15.278321 5.46873,-4.306567 12.19073,-6.459885 20.16602,-6.45996 8.24865,7.5e-5 14.75418,2.062247 19.5166,6.186523 4.76231,4.124414 7.21185,9.877989 7.34863,17.260742 l 0,35.000001 c -6e-5,7.15496 0.75189,12.50977 2.25586,16.06445 l 0,0.82032 z m -25.70312,-5.87891 c 5.46871,10e-6 10.3564,-1.32161 14.66308,-3.96484 4.30659,-2.64322 7.43973,-6.17512 9.39942,-10.59571 l 0,-16.26953 -14.62891,0 c -8.15758,0.0912 -14.53779,1.5837 -19.14062,4.47754 -4.60289,2.89391 -6.90432,6.87014 -6.9043,11.92871 -2e-5,4.14715 1.53807,7.5879 4.61426,10.32227 3.07615,2.73438 7.07517,4.10157 11.99707,4.10156 z"
               style="font-size:140px;font-variant:normal;font-weight:300;font-stretch:normal;text-align:start;line-height:114.99999762%;writing-mode:lr-tb;text-anchor:start;font-family:Roboto Light;-inkscape-font-specification:'Roboto Light, Light'"
               id="path3114"
               inkscape:connector-curvature="0" />
            <path
               d="m 488.17187,105.81098 c 0,-11.484326 2.56347,-20.63308 7.69043,-27.446289 5.12694,-6.813079 12.08819,-10.219651 20.88379,-10.219726 9.98043,7.5e-5 17.5911,3.942128 22.83203,11.826171 l 0,-41.49414 8.13477,0 0,105.000004 -7.65625,0 -0.3418,-9.84375 c -5.24094,7.47396 -12.94275,11.21093 -23.10547,11.21093 -8.52216,0 -15.39227,-3.42936 -20.61035,-10.28808 -5.21811,-6.85871 -7.82715,-16.1214 -7.82715,-27.78809 z m 8.27149,1.43555 c -2e-5,9.43362 1.89126,16.87339 5.67383,22.31933 3.78252,5.44597 9.11455,8.16895 15.99609,8.16895 10.07157,0 17.22651,-4.44335 21.46484,-13.33008 l 0,-34.726562 C 535.33979,80.062346 528.23042,75.254408 518.25,75.25434 c -6.88154,6.8e-5 -12.23635,2.70026 -16.06445,8.100585 -3.82815,5.400446 -5.74221,13.364305 -5.74219,23.891605 z"
               style="font-size:140px;font-variant:normal;font-weight:300;font-stretch:normal;text-align:start;line-height:114.99999762%;writing-mode:lr-tb;text-anchor:start;font-family:Roboto Light;-inkscape-font-specification:'Roboto Light, Light'"
               id="path3116"
               inkscape:connector-curvature="0" />
            <path
               d="m 616.96094,134.11176 c -4.92193,7.15495 -12.78325,10.73242 -23.58399,10.73242 -7.88414,0 -13.87697,-2.29003 -17.97851,-6.87011 -4.10158,-4.58007 -6.19793,-11.35904 -6.28907,-20.33692 l 0,-48.124998 8.13477,0 0,47.099608 c -2e-5,14.08205 5.69659,21.12305 17.08984,21.12305 11.84892,0 19.34565,-4.89908 22.49024,-14.69727 l 0,-53.525388 8.20312,0 0,73.964848 -7.92968,0 z"
               style="font-size:140px;font-variant:normal;font-weight:300;font-stretch:normal;text-align:start;line-height:114.99999762%;writing-mode:lr-tb;text-anchor:start;font-family:Roboto Light;-inkscape-font-specification:'Roboto Light, Light'"
               id="path3118"
               inkscape:connector-curvature="0" />
            <path
               d="m 642.9375,105.81098 c -10e-6,-11.484326 2.56347,-20.63308 7.69043,-27.446289 5.12693,-6.813079 12.08819,-10.219651 20.88379,-10.219726 9.98042,7.5e-5 17.59109,3.942128 22.83203,11.826171 l 0,-41.49414 8.13477,0 0,105.000004 -7.65625,0 -0.3418,-9.84375 c -5.24094,7.47396 -12.94276,11.21093 -23.10547,11.21093 -8.52216,0 -15.39227,-3.42936 -20.61035,-10.28808 -5.21811,-6.85871 -7.82716,-16.1214 -7.82715,-27.78809 z m 8.27148,1.43555 c -10e-6,9.43362 1.89126,16.87339 5.67383,22.31933 3.78253,5.44597 9.11456,8.16895 15.9961,8.16895 10.07156,0 17.2265,-4.44335 21.46484,-13.33008 l 0,-34.726562 c -4.23834,-9.615822 -11.3477,-14.42376 -21.32813,-14.423828 -6.88154,6.8e-5 -12.23635,2.70026 -16.06445,8.100585 -3.82814,5.400446 -5.7422,13.364305 -5.74219,23.891605 z"
               style="font-size:140px;font-variant:normal;font-weight:300;font-stretch:normal;text-align:start;line-height:114.99999762%;writing-mode:lr-tb;text-anchor:start;font-family:Roboto Light;-inkscape-font-specification:'Roboto Light, Light'"
               id="path3120"
               inkscape:connector-curvature="0" />
            <path
               d="m 720.86719,105.81098 c -1e-5,-11.575471 2.56346,-20.747012 7.69043,-27.514648 5.12693,-6.767506 12.08819,-10.151292 20.88379,-10.151367 10.07156,7.5e-5 17.72781,4.010487 22.96875,12.03125 l 0.41015,-10.664063 7.65625,0 0,72.460938 c -6e-5,9.52473 -2.66608,17.06704 -7.99804,22.62695 -5.33209,5.55987 -12.55539,8.33982 -21.66993,8.33985 -5.14977,-3e-5 -10.06024,-1.15075 -14.73144,-3.45215 -4.67124,-2.30146 -8.35125,-5.36623 -11.04004,-9.19434 l 4.58008,-4.92187 c 5.78774,7.10935 12.66924,10.66404 20.64453,10.66406 6.83589,-2e-5 12.16792,-2.01662 15.99609,-6.04981 3.82807,-4.03321 5.81049,-9.62728 5.94727,-16.78222 l 0,-9.29688 c -5.24094,7.29167 -12.8744,10.9375 -22.90039,10.9375 -8.56774,0 -15.44924,-3.41796 -20.64453,-10.2539 -5.19533,-6.83592 -7.79298,-16.06443 -7.79297,-27.68555 z m 8.27148,1.43555 c -1e-5,9.43362 1.89126,16.87339 5.67383,22.31933 3.78253,5.44597 9.11455,8.16895 15.99609,8.16895 10.07157,0 17.20373,-4.51171 21.39649,-13.53516 l 0,-34.384764 c -1.91412,-4.739525 -4.67128,-8.351175 -8.27149,-10.834961 -3.6003,-2.483657 -7.92973,-3.725517 -12.98828,-3.725585 -6.88154,6.8e-5 -12.23635,2.70026 -16.06445,8.100585 -3.82814,5.400446 -5.7422,13.364305 -5.74219,23.891605 z"
               style="font-size:140px;font-variant:normal;font-weight:300;font-stretch:normal;text-align:start;line-height:114.99999762%;writing-mode:lr-tb;text-anchor:start;font-family:Roboto Light;-inkscape-font-specification:'Roboto Light, Light'"
               id="path3122"
               inkscape:connector-curvature="0" />
            <path
               d="m 810.96484,143.477 -8.20312,0 0,-73.964848 8.20312,0 z m -9.63867,-95.361332 c -1e-5,-1.549383 0.50129,-2.859603 1.50391,-3.930664 1.00259,-1.070864 2.36978,-1.606345 4.10156,-1.606446 1.73175,1.01e-4 3.11033,0.535582 4.13574,1.606446 1.02537,1.071061 1.53807,2.381281 1.53809,3.930664 -2e-5,1.549573 -0.51272,2.848399 -1.53809,3.896484 -1.02541,1.048268 -2.40399,1.572356 -4.13574,1.572266 -1.73178,9e-5 -3.09897,-0.523998 -4.10156,-1.572266 -1.00262,-1.048085 -1.50392,-2.346911 -1.50391,-3.896484 z"
               style="font-size:140px;font-variant:normal;font-weight:300;font-stretch:normal;text-align:start;line-height:114.99999762%;writing-mode:lr-tb;text-anchor:start;font-family:Roboto Light;-inkscape-font-specification:'Roboto Light, Light'"
               id="path3124"
               inkscape:connector-curvature="0" />
            <path
               d="m 856.28711,132.1977 22.49023,-62.685548 8.40821,0 -27.61719,73.964848 -6.63086,0 -27.75391,-73.964848 8.40821,0 z"
               style="font-size:140px;font-variant:normal;font-weight:300;font-stretch:normal;text-align:start;line-height:114.99999762%;writing-mode:lr-tb;text-anchor:start;font-family:Roboto Light;-inkscape-font-specification:'Roboto Light, Light'"
               id="path3126"
               inkscape:connector-curvature="0" />
            <path
               d="m 929.1582,144.84418 c -6.28909,0 -11.97431,-1.54948 -17.05566,-4.64843 -5.0814,-3.09896 -9.03484,-7.41699 -11.86035,-12.95411 -2.82553,-5.53708 -4.23829,-11.74639 -4.23828,-18.62793 l 0,-2.93945 c -10e-6,-7.109329 1.37857,-13.512317 4.13574,-19.208983 2.75715,-5.696552 6.59666,-10.174086 11.51855,-13.432617 4.92185,-3.25839 10.25388,-4.88762 15.9961,-4.887695 8.97781,7.5e-5 16.09858,3.06485 21.3623,9.194335 5.26361,6.129618 7.89544,14.503633 7.89551,25.12207 l 0,4.58008 -52.77344,0 0,1.57226 c -1e-5,8.38545 2.40396,15.36949 7.21192,20.95215 4.80791,5.58269 10.85771,8.37403 18.14941,8.37403 4.37496,0 8.23726,-0.79752 11.58691,-2.39258 3.34956,-1.59504 6.39155,-4.14713 9.12598,-7.65625 l 5.12695,3.89648 c -6.01568,8.70443 -14.74289,13.05664 -26.18164,13.05664 z m -1.5039,-69.726559 c -6.15238,6.8e-5 -11.33629,2.255925 -15.55176,6.767578 -4.21551,4.511776 -6.77899,10.572968 -7.69043,18.183591 l 44.36523,0 0,-0.888669 c -0.22792,-7.109324 -2.25591,-12.897078 -6.08398,-17.363281 -3.82817,-4.46608 -8.84119,-6.699151 -15.03906,-6.699219 z"
               style="font-size:140px;font-variant:normal;font-weight:300;font-stretch:normal;text-align:start;line-height:114.99999762%;writing-mode:lr-tb;text-anchor:start;font-family:Roboto Light;-inkscape-font-specification:'Roboto Light, Light'"
               id="path3128"
               inkscape:connector-curvature="0" />
            <path
               d="m 1007.1562,76.484808 c -1.7318,-0.318943 -3.5775,-0.478448 -5.5371,-0.478515 -5.10416,6.7e-5 -9.42219,1.424219 -12.95406,4.272461 -3.53192,2.848367 -6.04983,6.984105 -7.55371,12.407226 l 0,50.79102 -8.13477,0 0,-73.964848 7.99805,0 0.13672,11.757813 c 4.3294,-8.74993 11.27926,-13.124925 20.84957,-13.125 2.2786,7.5e-5 4.0788,0.296299 5.4004,0.888671 z"
               style="font-size:140px;font-variant:normal;font-weight:300;font-stretch:normal;text-align:start;line-height:114.99999762%;writing-mode:lr-tb;text-anchor:start;font-family:Roboto Light;-inkscape-font-specification:'Roboto Light, Light'"
               id="path3130"
               inkscape:connector-curvature="0" />
            <path
               d="m 1027.8008,69.512152 0.2734,12.646484 c 2.7799,-4.557225 6.2435,-8.032157 10.3906,-10.424804 4.1471,-2.392504 8.7272,-3.588792 13.7403,-3.588867 7.9296,7.5e-5 13.8313,2.233146 17.7051,6.699218 3.8736,4.46621 5.8332,11.165422 5.8789,20.097657 l 0,48.53516 -8.1348,0 0,-48.60352 c -0.046,-6.608018 -1.447,-11.529888 -4.2041,-14.765625 -2.7572,-3.23561 -7.1664,-4.853447 -13.2275,-4.853515 -5.0587,6.8e-5 -9.5362,1.583725 -13.4327,4.750976 -3.8965,3.167378 -6.779,7.439835 -8.6474,12.817383 l 0,50.654301 -8.1348,0 0,-73.964848 z"
               style="font-size:140px;font-variant:normal;font-weight:300;font-stretch:normal;text-align:start;line-height:114.99999762%;writing-mode:lr-tb;text-anchor:start;font-family:Roboto Light;-inkscape-font-specification:'Roboto Light, Light'"
               id="path3132"
               inkscape:connector-curvature="0" />
            <path
               d="m 1125.4863,144.84418 c -6.2891,0 -11.9743,-1.54948 -17.0556,-4.64843 -5.0814,-3.09896 -9.0349,-7.41699 -11.8604,-12.95411 -2.8255,-5.53708 -4.2383,-11.74639 -4.2383,-18.62793 l 0,-2.93945 c 0,-7.109329 1.3786,-13.512317 4.1358,-19.208983 2.7571,-5.696552 6.5966,-10.174086 11.5185,-13.432617 4.9219,-3.25839 10.2539,-4.88762 15.9961,-4.887695 8.9778,7.5e-5 16.0986,3.06485 21.3623,9.194335 5.2636,6.129618 7.8955,14.503633 7.8955,25.12207 l 0,4.58008 -52.7734,0 0,1.57226 c 0,8.38545 2.404,15.36949 7.2119,20.95215 4.8079,5.58269 10.8577,8.37403 18.1494,8.37403 4.375,0 8.2373,-0.79752 11.5869,-2.39258 3.3496,-1.59504 6.3916,-4.14713 9.126,-7.65625 l 5.127,3.89648 c -6.0157,8.70443 -14.7429,13.05664 -26.1817,13.05664 z m -1.5039,-69.726559 c -6.1524,6.8e-5 -11.3363,2.255925 -15.5517,6.767578 -4.2155,4.511776 -6.779,10.572968 -7.6905,18.183591 l 44.3653,0 0,-0.888669 c -0.228,-7.109324 -2.2559,-12.897078 -6.084,-17.363281 -3.8282,-4.46608 -8.8412,-6.699151 -15.0391,-6.699219 z"
               style="font-size:140px;font-variant:normal;font-weight:300;font-stretch:normal;text-align:start;line-height:114.99999762%;writing-mode:lr-tb;text-anchor:start;font-family:Roboto Light;-inkscape-font-specification:'Roboto Light, Light'"
               id="path3134"
               inkscape:connector-curvature="0" />
            <path
               d="m 1213.6016,124.67817 c -10e-5,-4.05597 -1.6293,-7.31443 -4.8877,-9.77539 -3.2585,-2.46091 -8.169,-4.38636 -14.7315,-5.77637 -6.5625,-1.38994 -11.6553,-2.98499 -15.2783,-4.78516 -3.6231,-1.80009 -6.3119,-3.99898 -8.0664,-6.596676 -1.7546,-2.597608 -2.6318,-5.742136 -2.6318,-9.433594 0,-5.833272 2.4381,-10.652603 7.3144,-14.458008 4.8763,-3.805265 11.1198,-5.707932 18.7305,-5.708007 8.2486,7.5e-5 14.8681,2.039461 19.8584,6.118164 4.9902,4.078841 7.4853,9.399473 7.4853,15.961914 l -8.2031,0 c 0,-4.32937 -1.8116,-7.929627 -5.4346,-10.800782 -3.6231,-2.871026 -8.1917,-4.306572 -13.706,-4.30664 -5.3777,6.8e-5 -9.6957,1.196356 -12.9541,3.588867 -3.2585,2.39264 -4.8877,5.502989 -4.8877,9.331055 0,3.691458 1.3558,6.551155 4.0674,8.579101 2.7115,2.02804 7.6562,3.885136 14.834,5.571286 7.1776,1.68624 12.5552,3.48637 16.1328,5.40039 3.5774,1.9141 6.232,4.21553 7.9638,6.9043 1.7317,2.68883 2.5976,5.94729 2.5977,9.77539 -10e-5,6.2435 -2.518,11.23373 -7.5537,14.9707 -5.0359,3.73698 -11.6098,5.60547 -19.7217,5.60547 -8.6133,0 -15.5974,-2.08496 -20.9522,-6.25488 -5.3548,-4.16991 -8.0322,-9.44497 -8.0322,-15.82519 l 8.2031,0 c 0.319,4.78517 2.3356,8.51075 6.0499,11.17675 3.7141,2.66603 8.6246,3.99903 14.7314,3.99903 5.6966,0 10.2994,-1.25325 13.8086,-3.75977 3.5091,-2.5065 5.2636,-5.67381 5.2637,-9.50195 z"
               style="font-size:140px;font-variant:normal;font-weight:300;font-stretch:normal;text-align:start;line-height:114.99999762%;writing-mode:lr-tb;text-anchor:start;font-family:Roboto Light;-inkscape-font-specification:'Roboto Light, Light'"
               id="path3136"
               inkscape:connector-curvature="0" />
            <path
               d="m 305.10547,304.477 0,-67.26563 -12.23633,0 0,-6.69922 12.23633,0 0,-8.95508 c -2e-5,-7.56501 1.92544,-13.37555 5.77637,-17.43164 3.85088,-4.05588 9.21709,-6.08387 16.09863,-6.08398 3.09892,1.1e-4 5.99279,0.38747 8.68164,1.16211 l -0.61524,6.83594 c -2.27869,-0.54678 -4.76241,-0.82022 -7.45117,-0.82032 -4.51175,1e-4 -8.02086,1.40147 -10.52734,4.2041 -2.50654,2.80283 -3.75979,6.77906 -3.75977,11.92872 l 0,9.16015 17.63672,0 0,6.69922 -17.63672,0 0,67.26563 z"
               style="font-size:140px;font-variant:normal;font-weight:300;font-stretch:normal;text-align:start;line-height:114.99999762%;writing-mode:lr-tb;text-anchor:start;font-family:Roboto Light;-inkscape-font-specification:'Roboto Light, Light'"
               id="path3138"
               inkscape:connector-curvature="0" />
            <path
               d="m 421.52148,305.84418 c -6.33471,0 -11.76928,-1.24186 -16.30371,-3.72558 -4.53457,-2.48372 -8.169,-5.93587 -10.90332,-10.35645 -2.73443,4.46616 -6.69927,7.92969 -11.89453,10.39063 -5.19535,2.46093 -10.96032,3.6914 -17.29492,3.6914 -7.70185,0 -13.67189,-1.92545 -17.91016,-5.77636 -4.23829,-3.85091 -6.35742,-9.05761 -6.35742,-15.62012 0,-7.15492 2.5179,-12.77178 7.55371,-16.85059 5.03579,-4.07873 12.22491,-6.18648 21.56739,-6.32324 l 18.45703,0 0,-6.01562 c -6e-5,-6.01557 -1.447,-10.70958 -4.34082,-14.08204 -2.89393,-3.37232 -7.21196,-5.05852 -12.95411,-5.05859 -5.9245,7e-5 -10.77802,1.48119 -14.56054,4.44336 -3.78257,2.9623 -5.67385,6.83599 -5.67383,11.62109 l -8.13477,-0.88867 c 0,-6.56244 2.65462,-11.89446 7.96387,-15.99609 5.30923,-4.10149 12.11098,-6.15227 20.40527,-6.15235 5.69658,8e-5 10.56148,1.21915 14.59473,3.65723 4.03315,2.43822 6.96121,6.07266 8.78418,10.90332 2.73431,-4.55722 6.25482,-8.1233 10.56152,-10.69824 4.30657,-2.5748 9.10312,-3.86223 14.38965,-3.86231 8.9322,8e-5 15.96182,2.74585 21.08887,8.23731 5.12684,5.4916 7.73589,13.18202 7.82715,23.07129 l 0,7.24609 -51.74805,0 0,1.98242 c -6e-5,9.16019 2.18744,16.32652 6.5625,21.49903 4.37493,5.17253 10.48169,7.75879 18.32031,7.75879 8.4309,0 15.8137,-2.6888 22.14844,-8.06641 l 3.21289,5.94727 c -6.60818,6.01562 -15.06194,9.02343 -25.36133,9.02343 z m -55.16601,-6.83593 c 4.1471,0 8.3512,-1.04817 12.6123,-3.14454 4.26102,-2.09634 7.41694,-4.60285 9.46778,-7.51953 l 0,-20.50781 -17.5,0 c -6.24352,4e-5 -11.3249,1.39001 -15.24414,4.16992 -3.91929,2.77998 -6.084,6.56253 -6.49414,11.34766 l -0.0684,1.36719 c -2e-5,4.42058 1.49249,7.90691 4.47754,10.45898 2.985,2.55209 7.23467,3.82813 12.74902,3.82813 z m 53.11523,-62.89063 c -6.0157,7e-5 -11.07429,2.23314 -15.17578,6.69922 -4.10163,4.4662 -6.58535,10.52739 -7.45117,18.18359 l 43.4082,0 0,-2.11914 c -1e-4,-7.01817 -1.83441,-12.56667 -5.50293,-16.64551 -3.66871,-4.0787 -8.76148,-6.11809 -15.27832,-6.11816 z"
               style="font-size:140px;font-variant:normal;font-weight:300;font-stretch:normal;text-align:start;line-height:114.99999762%;writing-mode:lr-tb;text-anchor:start;font-family:Roboto Light;-inkscape-font-specification:'Roboto Light, Light'"
               id="path3140"
               inkscape:connector-curvature="0" />
            <path
               d="m 473.26953,304.477 -8.20312,0 0,-105 8.20312,0 z"
               style="font-size:140px;font-variant:normal;font-weight:300;font-stretch:normal;text-align:start;line-height:114.99999762%;writing-mode:lr-tb;text-anchor:start;font-family:Roboto Light;-inkscape-font-specification:'Roboto Light, Light'"
               id="path3142"
               inkscape:connector-curvature="0" />
            <path
               d="m 504.71484,304.477 -8.20312,0 0,-105 8.20312,0 z"
               style="font-size:140px;font-variant:normal;font-weight:300;font-stretch:normal;text-align:start;line-height:114.99999762%;writing-mode:lr-tb;text-anchor:start;font-family:Roboto Light;-inkscape-font-specification:'Roboto Light, Light'"
               id="path3144"
               inkscape:connector-curvature="0" />
            <path
               d="m 555.64258,305.84418 c -6.2891,0 -11.97431,-1.54948 -17.05567,-4.64843 -5.08139,-3.09896 -9.03484,-7.41699 -11.86035,-12.95411 -2.82553,-5.53708 -4.23828,-11.74639 -4.23828,-18.62793 l 0,-2.93945 c 0,-7.10933 1.37857,-13.51232 4.13574,-19.20898 2.75715,-5.69655 6.59667,-10.17409 11.51856,-13.43262 4.92185,-3.25839 10.25387,-4.88762 15.99609,-4.8877 8.97782,8e-5 16.09858,3.06486 21.36231,9.19434 5.2636,6.12962 7.89544,14.50363 7.8955,25.12207 l 0,4.58008 -52.77343,0 0,1.57226 c -2e-5,8.38545 2.40395,15.36949 7.21191,20.95215 4.80792,5.58269 10.85772,8.37403 18.14941,8.37403 4.37496,0 8.23726,-0.79752 11.58692,-2.39258 3.34955,-1.59504 6.39154,-4.14713 9.12598,-7.65625 l 5.12695,3.89648 c -6.01569,8.70443 -14.74289,13.05664 -26.18164,13.05664 z m -1.50391,-69.72656 c -6.15237,7e-5 -11.33629,2.25593 -15.55176,6.76758 -4.21551,4.51177 -6.77898,10.57297 -7.69043,18.18359 l 44.36524,0 0,-0.88867 c -0.22792,-7.10932 -2.25592,-12.89708 -6.08399,-17.36328 -3.82817,-4.46608 -8.84119,-6.69915 -15.03906,-6.69922 z"
               style="font-size:140px;font-variant:normal;font-weight:300;font-stretch:normal;text-align:start;line-height:114.99999762%;writing-mode:lr-tb;text-anchor:start;font-family:Roboto Light;-inkscape-font-specification:'Roboto Light, Light'"
               id="path3146"
               inkscape:connector-curvature="0" />
            <path
               d="m 643.75781,285.67817 c -5e-5,-4.05597 -1.62928,-7.31443 -4.88769,-9.77539 -3.25851,-2.46091 -8.16899,-4.38636 -14.73145,-5.77637 -6.56253,-1.38994 -11.6553,-2.98499 -15.27832,-4.78516 -3.62306,-1.80009 -6.31186,-3.99898 -8.0664,-6.59668 -1.75457,-2.5976 -2.63185,-5.74213 -2.63184,-9.43359 -10e-6,-5.83327 2.43814,-10.6526 7.31445,-14.45801 4.87628,-3.80526 11.11977,-5.70793 18.73047,-5.70801 8.24866,8e-5 14.86812,2.03947 19.8584,6.11817 4.99017,4.07884 7.48529,9.39947 7.48535,15.96191 l -8.20312,0 c -6e-5,-4.32937 -1.81158,-7.92962 -5.43457,-10.80078 -3.6231,-2.87103 -8.19178,-4.30657 -13.70606,-4.30664 -5.37763,7e-5 -9.69566,1.19636 -12.9541,3.58887 -3.25848,2.39264 -4.88771,5.50299 -4.8877,9.33105 -10e-6,3.69146 1.35578,6.55116 4.06739,8.5791 2.71156,2.02804 7.65622,3.88514 14.83398,5.57129 7.17769,1.68624 12.55529,3.48637 16.13281,5.40039 3.57742,1.9141 6.23204,4.21553 7.96387,6.9043 1.73171,2.68883 2.59759,5.94729 2.59766,9.77539 -7e-5,6.2435 -2.51797,11.23373 -7.55371,14.9707 -5.03586,3.73698 -11.60975,5.60547 -19.72168,5.60547 -8.61331,0 -15.59735,-2.08496 -20.95215,-6.25488 -5.35483,-4.16991 -8.03224,-9.44497 -8.03223,-15.82519 l 8.20313,0 c 0.31899,4.78517 2.33559,8.51075 6.0498,11.17675 3.71417,2.66603 8.62465,3.99903 14.73145,3.99903 5.69657,0 10.29943,-1.25325 13.80859,-3.75977 3.50906,-2.5065 5.26362,-5.67381 5.26367,-9.50195 z"
               style="font-size:140px;font-variant:normal;font-weight:300;font-stretch:normal;text-align:start;line-height:114.99999762%;writing-mode:lr-tb;text-anchor:start;font-family:Roboto Light;-inkscape-font-specification:'Roboto Light, Light'"
               id="path3148"
               inkscape:connector-curvature="0" />
            <path
               d="m 702.68359,253.89106 30.28321,0 0,7.65625 -30.28321,0 0,32.94922 -8.27148,0 0,-32.94922 -29.66797,0 0,-7.65625 29.66797,0 0,-31.85547 8.27148,0 z"
               style="font-size:140px;font-variant:normal;font-weight:300;font-stretch:normal;text-align:start;line-height:114.99999762%;writing-mode:lr-tb;text-anchor:start;font-family:Roboto Light;-inkscape-font-specification:'Roboto Light, Light'"
               id="path3150"
               inkscape:connector-curvature="0" />
            <path
               d="m 757.09766,230.51215 0.27343,12.64649 c 2.77993,-4.55723 6.24347,-8.03216 10.39063,-10.42481 4.1471,-2.3925 8.72717,-3.58879 13.74023,-3.58887 7.92964,8e-5 13.83133,2.23315 17.70508,6.69922 3.87363,4.46621 5.83327,11.16543 5.87891,20.09766 l 0,48.53516 -8.13477,0 0,-48.60352 c -0.0456,-6.60802 -1.447,-11.52989 -4.2041,-14.76562 -2.75721,-3.23562 -7.16639,-4.85345 -13.22754,-4.85352 -5.05863,7e-5 -9.53616,1.58373 -13.43262,4.75098 -3.8965,3.16737 -6.77899,7.43983 -8.64746,12.81738 l 0,50.6543 -8.13476,0 0,-73.96485 z"
               style="font-size:140px;font-variant:normal;font-weight:300;font-stretch:normal;text-align:start;line-height:114.99999762%;writing-mode:lr-tb;text-anchor:start;font-family:Roboto Light;-inkscape-font-specification:'Roboto Light, Light'"
               id="path3152"
               inkscape:connector-curvature="0" />
            <path
               d="m 901.95117,305.84418 c -6.33471,0 -11.76928,-1.24186 -16.30371,-3.72558 -4.53457,-2.48372 -8.16901,-5.93587 -10.90332,-10.35645 -2.73443,4.46616 -6.69927,7.92969 -11.89453,10.39063 -5.19536,2.46093 -10.96032,3.6914 -17.29492,3.6914 -7.70185,0 -13.67189,-1.92545 -17.91016,-5.77636 -4.23829,-3.85091 -6.35743,-9.05761 -6.35742,-15.62012 -10e-6,-7.15492 2.51789,-12.77178 7.55371,-16.85059 5.03579,-4.07873 12.22491,-6.18648 21.56738,-6.32324 l 18.45703,0 0,-6.01562 c -5e-5,-6.01557 -1.44699,-10.70958 -4.34082,-14.08204 -2.89392,-3.37232 -7.21195,-5.05852 -12.9541,-5.05859 -5.92451,7e-5 -10.77802,1.48119 -14.56054,4.44336 -3.78257,2.9623 -5.67385,6.83599 -5.67383,11.62109 l -8.13477,-0.88867 c -1e-5,-6.56244 2.65461,-11.89446 7.96387,-15.99609 5.30922,-4.10149 12.11097,-6.15227 20.40527,-6.15235 5.69658,8e-5 10.56148,1.21915 14.59473,3.65723 4.03315,2.43822 6.9612,6.07266 8.78418,10.90332 2.73431,-4.55722 6.25482,-8.1233 10.56152,-10.69824 4.30657,-2.5748 9.10311,-3.86223 14.38965,-3.86231 8.9322,8e-5 15.96181,2.74585 21.08887,8.23731 5.12684,5.4916 7.73589,13.18202 7.82715,23.07129 l 0,7.24609 -51.74805,0 0,1.98242 c -6e-5,9.16019 2.18744,16.32652 6.5625,21.49903 4.37493,5.17253 10.48169,7.75879 18.32031,7.75879 8.4309,0 15.8137,-2.6888 22.14844,-8.06641 l 3.21289,5.94727 c -6.60818,6.01562 -15.06195,9.02343 -25.36133,9.02343 z m -55.16601,-6.83593 c 4.1471,0 8.35119,-1.04817 12.6123,-3.14454 4.26102,-2.09634 7.41694,-4.60285 9.46777,-7.51953 l 0,-20.50781 -17.5,0 c -6.24351,4e-5 -11.32489,1.39001 -15.24414,4.16992 -3.91928,2.77998 -6.084,6.56253 -6.49414,11.34766 l -0.0684,1.36719 c -10e-6,4.42058 1.4925,7.90691 4.47754,10.45898 2.98501,2.55209 7.23468,3.82813 12.74903,3.82813 z m 53.11523,-62.89063 c -6.0157,7e-5 -11.07429,2.23314 -15.17578,6.69922 -4.10163,4.4662 -6.58535,10.52739 -7.45117,18.18359 l 43.4082,0 0,-2.11914 c -10e-5,-7.01817 -1.83441,-12.56667 -5.50293,-16.64551 -3.66871,-4.0787 -8.76148,-6.11809 -15.27832,-6.11816 z"
               style="font-size:140px;font-variant:normal;font-weight:300;font-stretch:normal;text-align:start;line-height:114.99999762%;writing-mode:lr-tb;text-anchor:start;font-family:Roboto Light;-inkscape-font-specification:'Roboto Light, Light'"
               id="path3154"
               inkscape:connector-curvature="0" />
            <path
               d="m 967.57617,293.1977 22.49024,-62.68555 8.4082,0 -27.61719,73.96485 -6.63086,0 -27.7539,-73.96485 8.4082,0 z"
               style="font-size:140px;font-variant:normal;font-weight:300;font-stretch:normal;text-align:start;line-height:114.99999762%;writing-mode:lr-tb;text-anchor:start;font-family:Roboto Light;-inkscape-font-specification:'Roboto Light, Light'"
               id="path3156"
               inkscape:connector-curvature="0" />
            <path
               d="m 1019.5977,230.51215 0.2734,12.64649 c 2.7799,-4.55723 6.2435,-8.03216 10.3906,-10.42481 4.1471,-2.3925 8.7272,-3.58879 13.7403,-3.58887 7.9296,8e-5 13.8313,2.23315 17.705,6.69922 3.8737,4.46621 5.8333,11.16543 5.8789,20.09766 l 0,48.53516 -8.1347,0 0,-48.60352 c -0.046,-6.60802 -1.447,-11.52989 -4.2041,-14.76562 -2.7572,-3.23562 -7.1664,-4.85345 -13.2276,-4.85352 -5.0586,7e-5 -9.5361,1.58373 -13.4326,4.75098 -3.8965,3.16737 -6.779,7.43983 -8.6474,12.81738 l 0,50.6543 -8.1348,0 0,-73.96485 z"
               style="font-size:140px;font-variant:normal;font-weight:300;font-stretch:normal;text-align:start;line-height:114.99999762%;writing-mode:lr-tb;text-anchor:start;font-family:Roboto Light;-inkscape-font-specification:'Roboto Light, Light'"
               id="path3158"
               inkscape:connector-curvature="0" />
          </g>
        </g>
      </g>
    </g>
    <g
       id="g3067"
       transform="matrix(0.53172831,0,0,0.53172831,-631.91427,216.66704)"
       inkscape:export-filename="D:\Projects\BFN3\app\img\logo.png"
       inkscape:export-xdpi="15.741844"
       inkscape:export-ydpi="15.741844">
      <polygon
         id="polygon3025"
         points="256,0 32,112 32,400 256,512 480,400 480,112 "
         style="fill:#b4d8f1" />
      <polygon
         id="polygon3027"
         points="32,112 32,400 256,512 480,400 480,112 256,224 "
         style="fill:#98c8ed" />
      <polygon
         id="polygon3029"
         points="480,112 256,224 256,512 480,400 "
         style="fill:#7ab9e8" />
      <g
         id="g3031" />
      <g
         id="g3033" />
      <g
         id="g3035" />
      <g
         id="g3037" />
      <g
         id="g3039" />
      <g
         id="g3041" />
      <g
         id="g3043" />
      <g
         id="g3045" />
      <g
         id="g3047" />
      <g
         id="g3049" />
      <g
         id="g3051" />
      <g
         id="g3053" />
      <g
         id="g3055" />
      <g
         id="g3057" />
      <g
         id="g3059" />
    </g>
  </g>
</svg>
