<?xml version="1.0" encoding="utf-8"?>
<svg xmlns="http://www.w3.org/2000/svg" xmlns:xlink="http://www.w3.org/1999/xlink">
 
	<symbol xmlns="http://www.w3.org/2000/svg" viewBox="0 0 60 60" id="file">
		<style type="text/css">
			.st0{fill:#00A8D9;}
		</style>
		<path class="st0" d="M30,7.4c12.5,0,22.6,10.1,22.6,22.6S42.5,52.6,30,52.6S7.4,42.5,7.4,30S17.5,7.4,30,7.4 M30,5.4
			C16.4,5.4,5.4,16.4,5.4,30s11,24.6,24.6,24.6s24.6-11,24.6-24.6S43.6,5.4,30,5.4L30,5.4z"/>
		<path class="st0" d="M15.5,48.6h-2V17c0-1.4,1.1-2.5,2.5-2.5h28c1.4,0,2.5,1.1,2.5,2.5v31.5h-2V17c0-0.3-0.2-0.5-0.5-0.5H16
			c-0.3,0-0.5,0.2-0.5,0.5V48.6z"/>
		<path class="st0" d="M41.5,30.8H18.4v-6.4h23.1V30.8z M20.4,28.8h19.1v-2.4H20.4V28.8z"/>
		<path class="st0" d="M41.5,39H18.4v-6.4h23.1V39z M20.4,37h19.1v-2.4H20.4V37z"/>
		<g>
			<path class="st0" d="M28.9,47.2H18.4v-6.4h10.5V47.2z M20.4,45.2h6.5v-2.4h-6.5V45.2z"/>
			<path class="st0" d="M41.5,47.2H31.1v-6.4h10.5V47.2z M33.1,45.2h6.5v-2.4h-6.5V45.2z"/>
		</g>
	</symbol>
  
	<symbol xmlns="http://www.w3.org/2000/svg" viewBox="0 0 60 60" id="bk">
		<style type="text/css">
			.st0{fill:#00A8D9;}
			.st1{fill:none;}
			.st2{font-family:'Roboto-Black';}
			.st3{font-size:2.3993px;}
		</style>
		<path class="st0" d="M29.2,9c11.6,0,21,9.4,21,21s-9.4,21-21,21s-21-9.4-21-21S17.6,9,29.2,9 M29.2,7c-12.7,0-23,10.3-23,23
			s10.3,23,23,23s23-10.3,23-23S42,7,29.2,7L29.2,7z"/>
		<rect x="18.9" y="37.9" class="st0" width="20.7" height="2"/>
		<rect x="18.9" y="42.9" class="st0" width="20.7" height="2"/>
		<g>
			<path class="st0" d="M15.7,46.4h-2V16.8c0-1.3,1.1-2.4,2.4-2.4h26.2c1.3,0,2.4,1.1,2.4,2.4v29.5h-2V16.8c0-0.2-0.2-0.4-0.4-0.4
				H16.1c-0.2,0-0.4,0.2-0.4,0.4V46.4z"/>
			<rect x="18.9" y="28.9" class="st0" width="20.7" height="2"/>
			<rect x="18.9" y="33.4" class="st0" width="20.7" height="2"/>
			
			<text transform="matrix(1 0 0 1 23.25 25.04)" class="st0 st2 st3">BK</text>
		</g>
	</symbol>
	
	<symbol xmlns="http://www.w3.org/2000/svg" viewBox="0 0 60 60" id="udb">
		<style type="text/css">
			.st0{fill:#00A8D9;}
			.st1{fill:none;}
			.st2{font-family:'Roboto-Black';}
			.st3{font-size:2.3993px;}
		</style>
		<path class="st0" d="M29.2,9c11.6,0,21,9.4,21,21s-9.4,21-21,21s-21-9.4-21-21S17.6,9,29.2,9 M29.2,7c-12.7,0-23,10.3-23,23
			s10.3,23,23,23s23-10.3,23-23S42,7,29.2,7L29.2,7z"/>
		<rect x="18.9" y="37.9" class="st0" width="20.7" height="2"/>
		<rect x="18.9" y="42.9" class="st0" width="20.7" height="2"/>
		<g>
			<path class="st0" d="M15.7,46.4h-2V16.8c0-1.3,1.1-2.4,2.4-2.4h26.2c1.3,0,2.4,1.1,2.4,2.4v29.5h-2V16.8c0-0.2-0.2-0.4-0.4-0.4
				H16.1c-0.2,0-0.4,0.2-0.4,0.4V46.4z"/>
			<rect x="18.9" y="28.9" class="st0" width="20.7" height="2"/>
			<rect x="18.9" y="33.4" class="st0" width="20.7" height="2"/>
			
			<text transform="matrix(1 0 0 1 21.9324 25.04)" class="st0 st2 st3">UDB</text>
		</g>
	</symbol>
  
	<symbol xmlns="http://www.w3.org/2000/svg" viewBox="0 0 60 60" id="pdf">
		<path class="st0" d="M30,6.3C43,6.3,53.7,17,53.7,30S43,53.7,30,53.7S6.3,43,6.3,30S17,6.3,30,6.3 M30,4.3C15.8,4.3,4.3,15.8,4.3,30
	S15.8,55.7,30,55.7S55.7,44.2,55.7,30S44.2,4.3,30,4.3L30,4.3z"/>
		<path class="st0" d="M44.5,35.4c0,0,0-1.6-2.5-2.4s-7.8,0-7.8,0c-1.9-1.7-4.6-5.9-4.6-5.9s0.9-1.9,1.5-5.6c1-5.4-2.2-5.7-2.2-5.7
	s-2.6-0.5-2.6,3s1.7,6.9,1.7,6.9c-1.4,4.8-4.5,10.5-4.5,10.5c-6.4,2.7-7.3,4.3-7.7,4.8c-0.4,0.5-1.4,3.7,2.6,3.1s7.5-8,7.5-8
	c2-1,8.1-2.3,8.1-2.3s2,2.9,6.4,3.5C44.9,37.9,44.5,35.4,44.5,35.4z M18.1,43.2c-1,0.4-1.9-0.1-2-0.7c-0.2-0.7,0.5-1.8,1.8-2.6
	c2.5-1.6,5-2.6,5-2.6S21.1,41.8,18.1,43.2z M27.1,17.7c0.3-1,1.3-1.3,1.8-1.1c0.6,0.3,1,1.6,0.8,3c-0.4,3-1.3,5.5-1.3,5.5
	S26.2,20.9,27.1,17.7z M26.4,35.1c1.5-2.3,3-7,3-7c0.8,1.6,4,5.4,4,5.4C31.6,33.5,26.4,35.1,26.4,35.1z M40.9,36.5
	c-3.4,0-6-2.8-6-2.8s2.2-0.3,5.1-0.2c1.5,0,2.5,0.5,2.6,1.2C42.7,35.2,42.6,36.5,40.9,36.5z"/>
	</symbol>
	
	<symbol xmlns="http://www.w3.org/2000/svg" viewBox="0 0 60 60" id="globe">
		<style type="text/css">
			.st0{fill:#00A8D9;}
			.st1{clip-path:url(#SVGID_2_);}
		</style>
		<path class="st0" d="M30,4.9c13.8,0,25.1,11.2,25.1,25.1S43.8,55.1,30,55.1S4.9,43.8,4.9,30S16.2,4.9,30,4.9 M30,2.9
			C15.1,2.9,2.9,15.1,2.9,30S15.1,57.1,30,57.1S57.1,44.9,57.1,30S44.9,2.9,30,2.9L30,2.9z"/>
		<g>
			<defs>
				<circle id="SVGID_1_" cx="30" cy="30" r="27.1"/>
			</defs>
			<clipPath id="SVGID_2_">
				<use xlink:href="#SVGID_1_"  style="overflow:visible;"/>
			</clipPath>
			<g class="st1">
				<path class="st0" d="M35.3,52.8c-2.1,0-4.1-1.3-4.7-2.5c-0.3-0.7-0.3-1.5-0.4-2.6c-0.1-2.5-0.3-4.5-2-5.2c-5.1,0.1-8.2-2.9-9.1-9
					c-0.2-1.4,0.5-4.2,2.7-6c1.4-1.1,4-2.2,8-0.6c3,1.2,5.6,1.4,7.5,0.5c1.6-0.7,2.3-2,2.5-2.6c-0.8-0.7-5.8-0.8-9-0.3
					c-2,0.3-3.9-0.5-4.3-1.8c-0.2-0.8,0-1.9,1.5-2.5c0.9-0.4,1.5-0.9,2.3-1.5c0.8-0.7,1.9-1.5,3.6-2.4c2.2-1.2,3.8-1.3,5.6-1.5
					c0.9-0.1,1.9-0.2,2.9-0.4c1.3-0.3,1.6-3,1.5-5.4l2-0.1c0.2,4.3-0.8,6.9-3,7.4c-1.2,0.3-2.3,0.4-3.2,0.5C38,16.9,36.6,17,34.8,18
					c-1.6,0.8-2.5,1.6-3.3,2.2c-0.8,0.6-1.6,1.2-2.7,1.7c-0.2,0.1-0.3,0.1-0.3,0.2c0.2,0.2,0.9,0.5,2,0.3c0.1,0,9-1.3,10.9,1.1
					c0.4,0.5,0.5,1.2,0.3,1.8c-0.6,1.7-1.9,3.1-3.6,3.8c-2.4,1.1-5.5,0.9-9.1-0.5c-2.5-1-4.5-0.9-6,0.3c-1.5,1.2-2.1,3.3-2,4.1
					c0.5,3.2,1.8,7.5,7.2,7.3l0.2,0l0.2,0.1c3.3,1.1,3.5,4.7,3.6,7.1c0,0.7,0.1,1.6,0.2,1.9c0.2,0.4,1.6,1.4,3.1,1.3
					c1.2-0.1,2-0.8,2.5-2.3c0.6-1.8,0.6-3.3,0.5-4.8c0-2.2-0.1-4.4,2.2-6.9c0.5-0.5,0.7-0.9,0.7-1.2c-0.1-0.5-0.9-1-1.5-1.4
					c-0.8-0.5-1.7-1.1-1.8-2c0-0.4,0.1-0.9,0.7-1.5c2.5-2.3,4-1.8,7.3,0.9c0.6,0.2,1.1,0.1,1.3-0.3c0.3-0.4,0.2-1.1,0.1-1.3
					c-0.8-1-0.8-3.1,0-4.4c0.6-1,1.6-1.4,2.7-1.2c1.1,0.2,1.9,0.8,2.5,1.2c0.7,0.5,0.8,0.5,0.9,0.4l1.5-1.1l1.2,1.6l-1.5,1.1
					c-1.4,1-2.5,0.1-3.3-0.4c-0.5-0.4-1-0.8-1.7-0.9c-0.2,0-0.4,0-0.6,0.3c-0.4,0.7-0.3,1.8-0.1,2.1c0.8,1,0.8,2.6,0,3.7
					c-0.4,0.5-1.5,1.7-3.8,1l-0.2-0.1L45,33.3c-3-2.5-3.3-2.4-4.6-1.2c0.2,0.1,0.5,0.3,0.7,0.5c1,0.6,2.2,1.4,2.4,2.8
					c0.1,0.9-0.3,1.8-1.2,2.8c-1.8,1.9-1.7,3.4-1.7,5.5c0,1.5,0.1,3.3-0.6,5.4c-1,3-3.1,3.6-4.3,3.6C35.5,52.8,35.4,52.8,35.3,52.8z"
					/>
				<path class="st0" d="M29.4,2.9v2c2.5,0,4.8,0.3,6.3,0.6c-2.1,2.1-5.4,5.5-7.8,7.5c-3,2.4-3.3,4.7-3.5,6.1c0,0,0,0.1,0,0.1
					c-0.3,0-0.5-0.1-0.6-0.3c-0.2-0.3-0.2-1.4,1-3.5C28,10,28.2,7.8,27.1,5.1C27.6,5,28.4,5,29.4,4.9L29.4,2.9 M29.4,2.9
					c-3,0-5.4,0.4-4.9,1.5c1.4,2.7,2,3.9-1.5,10c-3,5.2-0.5,6.8,1.4,6.8c0.3,0,0.6,0,0.9-0.1c1.8-0.5-0.2-3.3,3.8-6.6
					c3.2-2.6,7.8-7.5,9.5-9.2c0.3-0.3,0-0.6-0.3-0.8C37.4,3.6,33,2.9,29.4,2.9L29.4,2.9z"/>
				<path class="st0" d="M17.7,53.8l-1.4-1.4c0.8-0.8,1.3-3,1.3-5.8c0-1.7-4.6-8.3-7.4-9.5c-3.5-1.6-4.6-2.9-3.5-7.4
					c0.9-3.9,3.2-6.9,7.8-10.3c2.8-2.1,2.5-6.6,2.3-9.9c-0.1-0.8-0.1-1.5-0.1-2.2h2c0,0.6,0,1.2,0.1,2c0.3,3.6,0.6,8.9-3.1,11.7
					c-4.3,3.2-6.3,5.7-7,9.1c-0.8,3.5-0.3,3.9,2.4,5.1c3.2,1.4,8.6,8.6,8.6,11.4C19.6,48.5,19.3,52.1,17.7,53.8z"/>
			</g>
		</g>
	</symbol>
	
	<symbol xmlns="http://www.w3.org/2000/svg" viewBox="0 0 60 60" id="rocket">
		<style type="text/css">
			.st0{fill:#00A8D9;}
		</style>
		<path class="st0" d="M30,8.7c11.3,0,20.6,9.2,20.6,20.6S41.3,49.8,30,49.8S9.4,40.6,9.4,29.3S18.7,8.7,30,8.7 M30,6.7
			C17.5,6.7,7.4,16.8,7.4,29.3S17.5,51.8,30,51.8s22.6-10.1,22.6-22.6S42.5,6.7,30,6.7L30,6.7z"/>
		<g>
			<path class="st0" d="M36.6,29.2c0.6-6.2-1.6-12.5-6.1-17c-0.3-0.3-0.8-0.3-1,0c-4.5,4.5-6.7,10.8-6.1,17c-1.6,1.7-2.4,3.9-2.4,6.2
				c0,2.3,0.9,4.6,2.5,6.2c0.4,0.4,1.4,0.2,1.2-0.7c-0.1-0.5-0.2-0.9-0.2-1.4c0-1.1,0.3-2.2,1-3.1c0.1,0.1,0.2,0.1,0.4,0.1h8.4
				c0.1,0,0.2,0,0.4-0.1c0.6,0.9,1,2,1,3.1c0,0.5-0.1,0.9-0.2,1.4c-0.1,1,0.9,1.1,1.2,0.7c1.6-1.7,2.5-3.9,2.5-6.2
				C39.1,33.1,38.2,30.9,36.6,29.2L36.6,29.2z M30,13.8c1.3,1.4,2.4,3,3.2,4.7h-6.4C27.6,16.8,28.7,15.2,30,13.8L30,13.8z M23.1,38.5
				c-0.5-1-0.7-2.1-0.7-3.2c0-1.5,0.4-2.9,1.2-4.2c0,0.1,0.8,3,1.1,3.8C23.8,36,23.3,37.2,23.1,38.5L23.1,38.5z M33.7,35h-7.4
				c-2.1-4.9-2.1-10.3-0.2-15.1h7.7C35.7,24.7,35.8,30.1,33.7,35L33.7,35z M35.3,35c0.4-1.1,1.1-3.7,1.1-3.8c0.8,1.2,1.2,2.7,1.2,4.2
				c0,1.1-0.2,2.2-0.7,3.2C36.7,37.2,36.2,36,35.3,35L35.3,35z M35.3,35"/>
			<path class="st0" d="M27,37.7c-0.4,0-0.7,0.3-0.7,0.7v3.7c0,0.4,0.3,0.7,0.7,0.7c0.4,0,0.7-0.3,0.7-0.7v-3.7
				C27.8,38,27.4,37.7,27,37.7L27,37.7z M27,37.7"/>
			<path class="st0" d="M30,37.7c-0.2,0-0.4,0.1-0.5,0.2l0,0c-0.1,0.1-0.1,0.2-0.2,0.3c0,0.1,0,0.1,0,0.2v7.4c0,0.1,0,0.1,0,0.2
				c0.1,0.3,0.4,0.6,0.7,0.6c0.3,0,0.6-0.2,0.7-0.6c0-0.1,0-0.1,0-0.2v-7.4c0-0.1,0-0.1,0-0.2C30.6,37.9,30.3,37.7,30,37.7L30,37.7z
				 M30,37.7"/>
			<path class="st0" d="M33,37.7c-0.4,0-0.7,0.3-0.7,0.7v3.7c0,0.4,0.3,0.7,0.7,0.7c0.4,0,0.7-0.3,0.7-0.7v-3.7
				C33.7,38,33.4,37.7,33,37.7L33,37.7z M33,37.7"/>
		</g>
	</symbol>
  
</svg>
