<svg xmlns="http://www.w3.org/2000/svg" viewBox="1025 532 60 60">
  <defs>
    <style>
      .cls-1, .cls-4 {
        fill: #20a7d7;
      }

      .cls-2, .cls-3 {
        fill: none;
      }

      .cls-2 {
        stroke: #20a7d7;
        stroke-miterlimit: 10;
        stroke-width: 2px;
      }

      .cls-4 {
        font-size: 8px;
        font-family: Roboto-Black, Roboto;
        font-weight: 800;
      }
    </style>
  </defs>
  <g id="Group_13" data-name="Group 13" transform="translate(1025 532)">
    <g id="Group_12" data-name="Group 12">
      <path id="Path_3" data-name="Path 3" class="cls-1" d="M30,1.172A28.866,28.866,0,0,1,56.566,41.238a29.141,29.141,0,0,1-6.176,9.152A28.846,28.846,0,1,1,30,1.172M30,0A30,30,0,1,0,60,30,30,30,0,0,0,30,0Z"/>
    </g>
    <path id="Path_4" data-name="Path 4" class="cls-2" d="M161.893,144.3V107.216a1.818,1.818,0,0,0-1.816-1.816h-34.16a1.818,1.818,0,0,0-1.816,1.816V145.6" transform="translate(-112.557 -93.048)"/>
    <line id="Line_1" data-name="Line 1" class="cls-2" x2="26.953" transform="translate(16.922 31.172)"/>
    <line id="Line_2" data-name="Line 2" class="cls-2" x2="26.953" transform="translate(16.922 37.031)"/>
    <line id="Line_3" data-name="Line 3" class="cls-2" x2="26.953" transform="translate(16.922 42.891)"/>
    <line id="Line_4" data-name="Line 4" class="cls-2" x2="26.953" transform="translate(16.922 48.75)"/>
    <rect id="Rectangle_20" data-name="Rectangle 20" class="cls-3" width="27.188" height="5.977" transform="translate(19.805 19.57)"/>
    <text id="UDB" class="cls-4" transform="translate(22.526 25.281)"><tspan x="0" y="0">UDB</tspan></text>
  </g>
</svg>
