<svg xmlns="http://www.w3.org/2000/svg" xmlns:xlink="http://www.w3.org/1999/xlink" viewBox="7681 532 60 60">
  <defs>
    <style>
      .cls-1, .cls-3 {
        fill: #20a7d7;
      }

      .cls-2 {
        clip-path: url(#clip-path);
      }

      .cls-3 {
        stroke: #20a7d7;
      }
    </style>
    <clipPath id="clip-path">
      <circle id="Ellipse_6" data-name="Ellipse 6" cx="30" cy="30" r="30"/>
    </clipPath>
  </defs>
  <g id="Group_25" data-name="Group 25" transform="translate(7606.8 526.9)">
    <g id="Group_19" data-name="Group 19" transform="translate(74.2 5.1)">
      <path id="Path_9" data-name="Path 9" class="cls-1" d="M104.2,6.272A28.728,28.728,0,1,1,92.973,8.534,28.763,28.763,0,0,1,104.2,6.272m0-1.172a30,30,0,1,0,30,30,30,30,0,0,0-30-30Z" transform="translate(-74.2 -5.1)"/>
    </g>
    <g id="Group_24" data-name="Group 24" transform="translate(74.2 5.1)">
      <g id="Group_23" data-name="Group 23" class="cls-2" transform="translate(0 0)">
        <g id="Group_20" data-name="Group 20" transform="translate(18.813 5.859)">
          <path id="Path_10" data-name="Path 10" class="cls-3" d="M275.466,56.3c.223,6.539.48,15.68.457,19.512a5.852,5.852,0,0,0-1.863-.352,3.675,3.675,0,0,0-2.3.75c-.059.047-.094.059-.105.07a4.869,4.869,0,0,1-.8-.516,6.77,6.77,0,0,0-2.824-1.418,2.854,2.854,0,0,0-.621-.059,2.905,2.905,0,0,0-2.637,1.781,4.8,4.8,0,0,0,.234,4.617,1.354,1.354,0,0,1,.012,1.219.837.837,0,0,1-.844.48,2.5,2.5,0,0,1-.621-.094c-2.086-1.746-3.434-2.625-4.852-2.625a4.972,4.972,0,0,0-3.27,1.629,1.992,1.992,0,0,0-.762,1.676c.082,1.066,1.055,1.687,1.98,2.3.656.422,1.57,1.008,1.629,1.488a2.042,2.042,0,0,1-.715,1.289c-2.59,2.789-2.531,5.285-2.473,7.711a14.673,14.673,0,0,1-.586,5.273c-.539,1.641-1.512,2.484-2.895,2.484a4.46,4.46,0,0,1-2.086-.562,2.689,2.689,0,0,1-1.055-.879,8.446,8.446,0,0,1-.211-2.062,16.4,16.4,0,0,0-.574-4.324,5.28,5.28,0,0,0-3.41-3.609l-.2-.07-.211.012h-.34a6.507,6.507,0,0,1-6.023-3.094,12.84,12.84,0,0,1-1.57-4.934,5.678,5.678,0,0,1,1.43-3.809,4.919,4.919,0,0,1,3.9-1.746h0a9.437,9.437,0,0,1,3.387.727,16.792,16.792,0,0,0,6.164,1.336c4.535,0,7.055-2.625,7.91-5.086a2.079,2.079,0,0,0-.258-1.945c-.527-.738-1.8-1.723-6.8-1.723a39.086,39.086,0,0,0-5.484.375,4.565,4.565,0,0,1-.68.059,2.527,2.527,0,0,1-1.418-.352,2.012,2.012,0,0,1,.293-.164,13.674,13.674,0,0,0,3-1.945,21.82,21.82,0,0,1,3.633-2.426,12.137,12.137,0,0,1,5.285-1.371,24.718,24.718,0,0,0,3.574-.516c2.508-.586,3.234-3.457,3.4-5.766a21.172,21.172,0,0,0-.023-3.023l12.211-.316m1.137-1.2-14.648.352s1.172,7.969-2.344,8.789-5.625.117-9.141,1.992-4.219,3.281-6.562,4.336c-2.109.949-.891,2.766,1.605,2.766a5.6,5.6,0,0,0,.855-.07,39.4,39.4,0,0,1,5.309-.363c3.281,0,6.527.457,5.941,2.121-.68,1.934-2.742,4.3-6.809,4.3a15.632,15.632,0,0,1-5.73-1.254,10.313,10.313,0,0,0-3.82-.809c-5.027,0-6.785,4.992-6.492,6.9.34,2.309,1.371,9.023,8.766,9.023h.375c4.219,1.406,2.7,7.617,3.516,9.375a5.118,5.118,0,0,0,4.2,2.121c1.594,0,3.2-.82,4.008-3.293,1.758-5.391-1.031-8.426,2.812-12.539s-4.406-4.7-2.2-6.691a3.865,3.865,0,0,1,2.484-1.324c1.043,0,2.238.785,4.289,2.508a4.014,4.014,0,0,0,1.184.211c2.227,0,2.555-2.59,1.746-3.609-.879-1.1-.516-4.488,1.488-4.488a2.158,2.158,0,0,1,.387.035c1.887.375,2.8,1.969,3.867,1.969a1.3,1.3,0,0,0,.82-.328,2.468,2.468,0,0,1,1.57-.5,4.046,4.046,0,0,1,2.883,1.207c.012.012.012.012.023.012.422,0-.375-22.746-.375-22.746Z" transform="translate(-234.736 -55.1)"/>
        </g>
        <g id="Group_21" data-name="Group 21" transform="translate(20.827 -0.598)">
          <path id="Path_11" data-name="Path 11" class="cls-3" d="M258.321,1.172A81.347,81.347,0,0,1,269.149,2.32a125.7,125.7,0,0,1-9.644,9.316,8.906,8.906,0,0,0-3.562,6.141,3.5,3.5,0,0,1-.2.891c-.012,0-.023.012-.059.023a2.259,2.259,0,0,1-.645.082,2.012,2.012,0,0,1-1.723-.809c-.539-.926-.117-2.73,1.148-4.957,1.98-3.469,2.836-5.625,2.988-7.418A7.625,7.625,0,0,0,256.4,1.312a10.231,10.231,0,0,1,1.922-.141h0m0-1.172c-2.238,0-3.715.328-3.223,1.3,1.523,3.047,2.227,4.336-1.641,11.133-3.316,5.824-.527,7.512,1.594,7.512a3.706,3.706,0,0,0,.984-.129c1.992-.586-.234-3.633,4.219-7.266A147.263,147.263,0,0,0,271.5,1.535,97.826,97.826,0,0,0,258.321,0Z" transform="translate(-251.926)"/>
        </g>
        <g id="Group_22" data-name="Group 22" transform="translate(-8.695 2.93)">
          <path id="Path_12" data-name="Path 12" class="cls-3" d="M15.668,31.389a31.543,31.543,0,0,1,3.914,1.184c2.449.937,3.973,2.051,3.973,2.906,0,.645.035,1.324.082,2.051.188,3.211.4,6.867-2.766,9.2A28.784,28.784,0,0,0,15.246,51.9a15.527,15.527,0,0,0-3.059,6.293c-.6,2.578-.562,4.137.105,5.379.75,1.383,2.262,2.145,3.867,2.871,1.336.6,3.4,2.59,5.273,5.086,1.91,2.555,2.941,4.711,2.941,5.449,0,2.93-.48,5.3-1.277,6.281h-.047c-.75,0-3.012-.363-9.633-2.824-2.918-1.078-5.6-2.18-6.75-2.648L1.254,48.369l14.414-16.98M15.234,30.1,0,48.03,5.625,78.615s13.851,5.812,17.426,5.812a1.077,1.077,0,0,0,.738-.187c1.406-1.406,1.758-4.8,1.758-7.266s-5.508-10.078-8.906-11.6-4.336-2.461-3.3-6.914,3.773-7.5,8.227-10.781,3.164-8.672,3.164-12.187S15.234,30.1,15.234,30.1Z" transform="translate(0 -30.1)"/>
        </g>
      </g>
    </g>
  </g>
</svg>
