<svg xmlns="http://www.w3.org/2000/svg" viewBox="625 532 60 60">
  <defs>
    <style>
      .cls-1 {
        fill: #20a7d7;
      }

      .cls-2, .cls-3, .cls-4 {
        fill: none;
      }

      .cls-2, .cls-4 {
        stroke: #20a7d7;
        stroke-width: 2px;
      }

      .cls-2 {
        stroke-miterlimit: 10;
      }

      .cls-5 {
        stroke: none;
      }
    </style>
  </defs>
  <g id="Group_15" data-name="Group 15" transform="translate(625 532)">
    <g id="Group_12" data-name="Group 12">
      <path id="Path_3" data-name="Path 3" class="cls-1" d="M30,1.172A28.866,28.866,0,0,1,56.566,41.238a29.141,29.141,0,0,1-6.176,9.152A28.846,28.846,0,1,1,30,1.172M30,0A30,30,0,1,0,60,30,30,30,0,0,0,30,0Z"/>
    </g>
    <path id="Path_4" data-name="Path 4" class="cls-2" d="M161.893,144.3V107.216a1.818,1.818,0,0,0-1.816-1.816h-34.16a1.818,1.818,0,0,0-1.816,1.816V145.6" transform="translate(-112.557 -93.048)"/>
    <rect id="Rectangle_20" data-name="Rectangle 20" class="cls-3" width="27.188" height="5.977" transform="translate(19.805 19.57)"/>
    <g id="Rectangle_21" data-name="Rectangle 21" class="cls-4" transform="translate(17 21)">
      <rect class="cls-5" width="27" height="7"/>
      <rect class="cls-3" x="1" y="1" width="25" height="5"/>
    </g>
    <g id="Rectangle_22" data-name="Rectangle 22" class="cls-4" transform="translate(17 31)">
      <rect class="cls-5" width="27" height="7"/>
      <rect class="cls-3" x="1" y="1" width="25" height="5"/>
    </g>
    <g id="Rectangle_23" data-name="Rectangle 23" class="cls-4" transform="translate(17 41)">
      <rect class="cls-5" width="12" height="7"/>
      <rect class="cls-3" x="1" y="1" width="10" height="5"/>
    </g>
    <g id="Rectangle_24" data-name="Rectangle 24" class="cls-4" transform="translate(32 41)">
      <rect class="cls-5" width="12" height="7"/>
      <rect class="cls-3" x="1" y="1" width="10" height="5"/>
    </g>
  </g>
</svg>
