<svg xmlns="http://www.w3.org/2000/svg" viewBox="1225.494 532 59.506 59.506">
  <defs>
    <style>
      .cls-1, .cls-2 {
        fill: #20a7d7;
      }

      .cls-2 {
        stroke: #20a7d7;
      }
    </style>
  </defs>
  <g id="Group_11" data-name="Group 11" transform="translate(1225.494 532)">
    <g id="Group_10" data-name="Group 10">
      <path id="Path_1" data-name="Path 1" class="cls-1" d="M29.753,1.162A28.628,28.628,0,0,1,56.1,40.9a28.9,28.9,0,0,1-6.125,9.077A28.608,28.608,0,1,1,29.753,1.162m0-1.162A29.753,29.753,0,1,0,59.506,29.753,29.751,29.751,0,0,0,29.753,0Z"/>
    </g>
    <path id="Path_2" data-name="Path 2" class="cls-2" d="M144.843,137.069s-.035-1.8-2.859-2.766-9.054,0-9.054,0c-2.255-1.976-5.311-6.834-5.311-6.834a32.026,32.026,0,0,0,1.778-6.543c1.151-6.288-2.545-6.6-2.545-6.6s-2.975-.535-3.022,3.533a19.217,19.217,0,0,0,2,7.973,76.319,76.319,0,0,1-5.207,12.145c-7.4,3.092-8.426,4.974-8.938,5.567s-1.592,4.335,2.987,3.615,8.694-9.309,8.694-9.309c2.348-1.174,9.449-2.65,9.449-2.65a11.03,11.03,0,0,0,7.4,4.045C145.354,139.951,144.843,137.069,144.843,137.069Zm-30.625,8.972a1.637,1.637,0,0,1-2.29-.779c-.186-.79.581-2.092,2.046-3.033a35.35,35.35,0,0,1,5.8-2.987S117.739,144.391,114.218,146.041Zm10.437-29.521a1.644,1.644,0,0,1,2.08-1.232c.721.372,1.209,1.8.976,3.533a35.869,35.869,0,0,1-1.5,6.346S123.62,120.275,124.655,116.521Zm-.825,20.118a48.812,48.812,0,0,0,3.487-8.078,55.109,55.109,0,0,0,4.661,6.206C129.827,134.872,123.829,136.639,123.829,136.639Zm16.876,1.674c-3.882,0-7-3.254-7-3.254a38.7,38.7,0,0,1,5.962-.256c1.743.058,2.871.593,3.022,1.395A1.785,1.785,0,0,1,140.705,138.312Z" transform="translate(-98.272 -101.016)"/>
  </g>
</svg>
