<svg xmlns="http://www.w3.org/2000/svg" viewBox="3441 532 60 60">
  <defs>
    <style>
      .cls-1 {
        fill: #20a7d7;
      }

      .cls-2, .cls-4 {
        fill: none;
      }

      .cls-2 {
        stroke: #20a7d7;
        stroke-width: 2px;
      }

      .cls-3 {
        stroke: none;
      }
    </style>
  </defs>
  <g id="Group_18" data-name="Group 18" transform="translate(3460 541.274)">
    <path id="Path_5" data-name="Path 5" class="cls-1" d="M18.887,20.655A25.725,25.725,0,0,0,11.525.221a.916.916,0,0,0-1.25,0A25.725,25.725,0,0,0,2.913,20.655a10.886,10.886,0,0,0,.1,14.925A.886.886,0,0,0,4.5,34.754a9.462,9.462,0,0,1-.233-1.684,6.537,6.537,0,0,1,1.186-3.782.964.964,0,0,0,.424.106H15.921a.964.964,0,0,0,.424-.106,6.537,6.537,0,0,1,1.186,3.782,12.119,12.119,0,0,1-.233,1.684.884.884,0,0,0,1.494.826A10.912,10.912,0,0,0,21.8,28.07a10.8,10.8,0,0,0-2.913-7.415ZM10.9,2.128a23.744,23.744,0,0,1,3.866,5.625H7.044A22.892,22.892,0,0,1,10.9,2.128ZM2.6,31.873a9.126,9.126,0,0,1,.657-8.781c.011.064.932,3.6,1.292,4.513A8.155,8.155,0,0,0,2.6,31.873Zm12.743-4.248H6.462a23.9,23.9,0,0,1-.2-18.114h9.29a23.946,23.946,0,0,1-.212,18.114Zm1.928-.032c.487-1.261,1.282-4.46,1.292-4.513a9.126,9.126,0,0,1,.657,8.781,8.4,8.4,0,0,0-1.949-4.269Zm0,0" transform="translate(0 0)"/>
    <path id="Path_6" data-name="Path 6" class="cls-1" d="M61.779,291.6a.884.884,0,0,0-.879.879v4.428a.879.879,0,1,0,1.758,0v-4.428a.877.877,0,0,0-.879-.879Zm0,0" transform="translate(-54.449 -260.734)"/>
    <path id="Path_7" data-name="Path 7" class="cls-1" d="M95.39,291.6a.89.89,0,0,0-.625.265l-.011.011a.846.846,0,0,0-.222.392.826.826,0,0,0-.032.233v8.856a1.3,1.3,0,0,0,.021.2.882.882,0,0,0,1.716,0,.652.652,0,0,0,.021-.2v-8.877a.826.826,0,0,0-.032-.233.864.864,0,0,0-.837-.646Zm0,0" transform="translate(-84.49 -260.734)"/>
    <path id="Path_8" data-name="Path 8" class="cls-1" d="M129.179,291.6a.884.884,0,0,0-.879.879v4.428a.879.879,0,1,0,1.758,0v-4.428a.87.87,0,0,0-.879-.879Zm0,0" transform="translate(-114.709 -260.734)"/>
    <g id="Ellipse_5" data-name="Ellipse 5" class="cls-2" transform="translate(-19 -9.274)">
      <circle class="cls-3" cx="30" cy="30" r="30"/>
      <circle class="cls-4" cx="30" cy="30" r="29"/>
    </g>
  </g>
</svg>
